<svg width="960" height="620" viewBox="0 0 960 620" fill="none" xmlns="http://www.w3.org/2000/svg">
  <rect width="960" height="620" rx="36" fill="#F3FAF7"/>
  <rect x="46" y="46" width="868" height="528" rx="30" fill="white" fill-opacity="0.76"/>
  <rect x="94" y="112" width="214" height="124" rx="26" fill="#ECF7F3"/>
  <rect x="128" y="148" width="88" height="18" rx="9" fill="#0F766E" fill-opacity="0.18"/>
  <rect x="128" y="182" width="134" height="12" rx="6" fill="#B4D8CE"/>
  <rect x="128" y="205" width="110" height="12" rx="6" fill="#C6E3DB"/>
  <circle cx="201" cy="92" r="22" fill="#0F766E"/>
  <path d="M188 92H214" stroke="white" stroke-width="4" stroke-linecap="round"/>
  <path d="M201 79V105" stroke="white" stroke-width="4" stroke-linecap="round"/>
  <rect x="374" y="112" width="214" height="124" rx="26" fill="#ECF7F3"/>
  <rect x="408" y="148" width="88" height="18" rx="9" fill="#0F766E" fill-opacity="0.18"/>
  <rect x="408" y="182" width="134" height="12" rx="6" fill="#B4D8CE"/>
  <rect x="408" y="205" width="110" height="12" rx="6" fill="#C6E3DB"/>
  <circle cx="481" cy="92" r="22" fill="#0F766E"/>
  <circle cx="474" cy="92" r="4" fill="white"/>
  <circle cx="481" cy="92" r="4" fill="white"/>
  <circle cx="488" cy="92" r="4" fill="white"/>
  <rect x="654" y="112" width="214" height="124" rx="26" fill="#ECF7F3"/>
  <rect x="688" y="148" width="88" height="18" rx="9" fill="#0F766E" fill-opacity="0.18"/>
  <rect x="688" y="182" width="134" height="12" rx="6" fill="#B4D8CE"/>
  <rect x="688" y="205" width="110" height="12" rx="6" fill="#C6E3DB"/>
  <circle cx="761" cy="92" r="22" fill="#0F766E"/>
  <path d="M749 98L757 86L764 94L773 82" stroke="white" stroke-width="4" stroke-linecap="round" stroke-linejoin="round"/>
  <path d="M322 173H360" stroke="#0F766E" stroke-width="6" stroke-linecap="round"/>
  <path d="M602 173H640" stroke="#0F766E" stroke-width="6" stroke-linecap="round"/>
  <rect x="122" y="326" width="716" height="164" rx="30" fill="#0F766E" fill-opacity="0.08"/>
  <rect x="172" y="372" width="150" height="74" rx="22" fill="white"/>
  <rect x="356" y="372" width="150" height="74" rx="22" fill="white"/>
  <rect x="540" y="372" width="150" height="74" rx="22" fill="white"/>
  <rect x="724" y="372" width="64" height="74" rx="22" fill="#0F766E"/>
  <circle cx="248" cy="409" r="11" fill="#0F766E" fill-opacity="0.2"/>
  <circle cx="432" cy="409" r="11" fill="#0F766E" fill-opacity="0.2"/>
  <circle cx="616" cy="409" r="11" fill="#0F766E" fill-opacity="0.2"/>
  <path d="M322 409H356" stroke="#0F766E" stroke-width="5" stroke-linecap="round"/>
  <path d="M506 409H540" stroke="#0F766E" stroke-width="5" stroke-linecap="round"/>
  <path d="M690 409H724" stroke="#0F766E" stroke-width="5" stroke-linecap="round"/>
</svg>
