<svg width="1600" height="920" viewBox="0 0 1600 920" fill="none" xmlns="http://www.w3.org/2000/svg">
  <rect width="1600" height="920" fill="#F5FBF8"/>
  <rect x="52" y="52" width="1496" height="816" rx="44" fill="url(#paint0_linear_26_12)"/>
  <g opacity="0.5">
    <path d="M141 157H1459" stroke="#B7D8D0" stroke-width="2"/>
    <path d="M141 269H1459" stroke="#B7D8D0" stroke-width="2"/>
    <path d="M141 381H1459" stroke="#B7D8D0" stroke-width="2"/>
    <path d="M141 493H1459" stroke="#B7D8D0" stroke-width="2"/>
    <path d="M141 605H1459" stroke="#B7D8D0" stroke-width="2"/>
    <path d="M141 717H1459" stroke="#B7D8D0" stroke-width="2"/>
    <path d="M257 101V819" stroke="#B7D8D0" stroke-width="2"/>
    <path d="M471 101V819" stroke="#B7D8D0" stroke-width="2"/>
    <path d="M685 101V819" stroke="#B7D8D0" stroke-width="2"/>
    <path d="M899 101V819" stroke="#B7D8D0" stroke-width="2"/>
    <path d="M1113 101V819" stroke="#B7D8D0" stroke-width="2"/>
    <path d="M1327 101V819" stroke="#B7D8D0" stroke-width="2"/>
  </g>
  <rect x="190" y="177" width="304" height="164" rx="28" fill="#FFFFFF" fill-opacity="0.86"/>
  <rect x="218" y="209" width="118" height="20" rx="10" fill="#0F766E" fill-opacity="0.16"/>
  <rect x="218" y="248" width="214" height="12" rx="6" fill="#A9CFC5"/>
  <rect x="218" y="272" width="184" height="12" rx="6" fill="#C2E0D8"/>
  <rect x="994" y="171" width="372" height="190" rx="34" fill="#FFFFFF" fill-opacity="0.84"/>
  <rect x="1033" y="218" width="142" height="22" rx="11" fill="#0F766E" fill-opacity="0.16"/>
  <rect x="1033" y="261" width="276" height="14" rx="7" fill="#B8DAD1"/>
  <rect x="1033" y="289" width="239" height="14" rx="7" fill="#CDE6E0"/>
  <rect x="1033" y="318" width="187" height="14" rx="7" fill="#DCEFEA"/>
  <rect x="365" y="488" width="900" height="208" rx="42" fill="#0F766E" fill-opacity="0.08"/>
  <rect x="423" y="548" width="184" height="96" rx="28" fill="#FFFFFF" fill-opacity="0.94"/>
  <rect x="644" y="548" width="184" height="96" rx="28" fill="#FFFFFF" fill-opacity="0.9"/>
  <rect x="865" y="548" width="184" height="96" rx="28" fill="#FFFFFF" fill-opacity="0.9"/>
  <rect x="1086" y="548" width="120" height="96" rx="28" fill="#0F766E"/>
  <circle cx="515" cy="596" r="15" fill="#0F766E" fill-opacity="0.22"/>
  <circle cx="736" cy="596" r="15" fill="#0F766E" fill-opacity="0.22"/>
  <circle cx="957" cy="596" r="15" fill="#0F766E" fill-opacity="0.22"/>
  <path d="M609 596H644" stroke="#0F766E" stroke-width="6" stroke-linecap="round"/>
  <path d="M830 596H865" stroke="#0F766E" stroke-width="6" stroke-linecap="round"/>
  <path d="M1051 596H1086" stroke="#0F766E" stroke-width="6" stroke-linecap="round"/>
  <circle cx="1265" cy="246" r="124" fill="url(#paint1_radial_26_12)"/>
  <circle cx="303" cy="742" r="116" fill="url(#paint2_radial_26_12)"/>
  <defs>
    <linearGradient id="paint0_linear_26_12" x1="800" y1="52" x2="800" y2="868" gradientUnits="userSpaceOnUse">
      <stop stop-color="#F8FCFA"/>
      <stop offset="1" stop-color="#E8F4F0"/>
    </linearGradient>
    <radialGradient id="paint1_radial_26_12" cx="0" cy="0" r="1" gradientUnits="userSpaceOnUse" gradientTransform="translate(1265 246) rotate(90) scale(124)">
      <stop stop-color="#2DD4BF" stop-opacity="0.42"/>
      <stop offset="1" stop-color="#2DD4BF" stop-opacity="0"/>
    </radialGradient>
    <radialGradient id="paint2_radial_26_12" cx="0" cy="0" r="1" gradientUnits="userSpaceOnUse" gradientTransform="translate(303 742) rotate(90) scale(116)">
      <stop stop-color="#0F766E" stop-opacity="0.24"/>
      <stop offset="1" stop-color="#0F766E" stop-opacity="0"/>
    </radialGradient>
  </defs>
</svg>
