<svg width="960" height="620" viewBox="0 0 960 620" fill="none" xmlns="http://www.w3.org/2000/svg">
  <rect width="960" height="620" rx="36" fill="#F7FBF9"/>
  <rect x="66" y="76" width="828" height="468" rx="32" fill="#FFFFFF" fill-opacity="0.86"/>
  <rect x="110" y="122" width="180" height="360" rx="28" fill="#F0F8F5"/>
  <rect x="140" y="162" width="112" height="18" rx="9" fill="#0F766E" fill-opacity="0.18"/>
  <rect x="140" y="202" width="120" height="16" rx="8" fill="#C1E1D8"/>
  <rect x="140" y="232" width="96" height="16" rx="8" fill="#D3EAE4"/>
  <rect x="140" y="262" width="130" height="16" rx="8" fill="#DCEFEA"/>
  <rect x="140" y="312" width="120" height="16" rx="8" fill="#C1E1D8"/>
  <rect x="140" y="342" width="86" height="16" rx="8" fill="#D3EAE4"/>
  <rect x="338" y="122" width="238" height="164" rx="28" fill="#0F766E"/>
  <rect x="378" y="162" width="120" height="18" rx="9" fill="#FFFFFF" fill-opacity="0.16"/>
  <rect x="378" y="202" width="160" height="13" rx="6.5" fill="#FFFFFF" fill-opacity="0.32"/>
  <rect x="378" y="227" width="118" height="13" rx="6.5" fill="#FFFFFF" fill-opacity="0.22"/>
  <rect x="632" y="122" width="182" height="164" rx="28" fill="#F0F8F5"/>
  <circle cx="676" cy="168" r="18" fill="#0F766E" fill-opacity="0.18"/>
  <rect x="706" y="159" width="76" height="16" rx="8" fill="#0F766E" fill-opacity="0.18"/>
  <rect x="676" y="208" width="106" height="12" rx="6" fill="#B9DCD2"/>
  <rect x="676" y="232" width="88" height="12" rx="6" fill="#CDE7E0"/>
  <rect x="338" y="330" width="476" height="152" rx="30" fill="#ECF7F3"/>
  <rect x="376" y="372" width="128" height="72" rx="22" fill="#FFFFFF"/>
  <rect x="530" y="372" width="128" height="72" rx="22" fill="#FFFFFF"/>
  <rect x="684" y="372" width="92" height="72" rx="22" fill="#0F766E"/>
  <path d="M504 408H530" stroke="#0F766E" stroke-width="5" stroke-linecap="round"/>
  <path d="M658 408H684" stroke="#0F766E" stroke-width="5" stroke-linecap="round"/>
  <circle cx="440" cy="408" r="12" fill="#0F766E" fill-opacity="0.2"/>
  <circle cx="594" cy="408" r="12" fill="#0F766E" fill-opacity="0.2"/>
  <circle cx="836" cy="126" r="64" fill="url(#paint0_radial_59_3)"/>
  <defs>
    <radialGradient id="paint0_radial_59_3" cx="0" cy="0" r="1" gradientUnits="userSpaceOnUse" gradientTransform="translate(836 126) rotate(90) scale(64)">
      <stop stop-color="#2DD4BF" stop-opacity="0.45"/>
      <stop offset="1" stop-color="#2DD4BF" stop-opacity="0"/>
    </radialGradient>
  </defs>
</svg>
